<?xml version="1.0" encoding="utf-8"?>
<!-- Generator: Adobe Illustrator 24.0.1, SVG Export Plug-In . SVG Version: 6.00 Build 0)  -->
<svg version="1.1" id="Layer_1" xmlns="http://www.w3.org/2000/svg" xmlns:xlink="http://www.w3.org/1999/xlink" x="0px" y="0px"
	 viewBox="0 0 2000 2000" style="enable-background:new 0 0 2000 2000;" xml:space="preserve">
<style type="text/css">
	.st0{display:none;fill:url(#SVGID_1_);}
	.st1{display:none;fill:url(#SVGID_2_);}
	.st2{display:none;fill:url(#SVGID_3_);}
</style>
<linearGradient id="SVGID_1_" gradientUnits="userSpaceOnUse" x1="0" y1="1000" x2="2000" y2="1000">
	<stop  offset="0" style="stop-color:#FFFFFF"/>
	<stop  offset="1" style="stop-color:#EFEFEF"/>
</linearGradient>
<rect class="st0" width="2000" height="2000"/>
<g>
	<g>
		<g>
			<g>
				<g>
					<g>
						<g>
							<g>
								<path d="M810.06,984.21H662.84v-67.48h147.22V984.21z M675.04,972.01h122.82v-43.08H675.04V972.01z"/>
							</g>
							<polygon points="802.21,975.54 785.01,993.12 687.88,993.12 670.68,975.54 662.84,984.21 681.06,1005.31 791.84,1005.31 
								810.06,984.21 							"/>
							<g>
								<g>
									<rect x="685.5" y="884" width="12.2" height="38.83"/>
								</g>
								<g>
									<rect x="775.2" y="884" width="12.2" height="38.83"/>
								</g>
							</g>
							<g>
								<polygon points="810.06,890.1 662.84,890.1 662.84,850.19 675.04,850.19 675.04,877.9 797.86,877.9 797.86,850.19 
									810.06,850.19 								"/>
							</g>
						</g>
						<g>
							<g>
								<rect x="707.74" y="1003.73" width="12.2" height="95.14"/>
							</g>
							<g>
								<rect x="752.96" y="1003.73" width="12.2" height="95.14"/>
							</g>
						</g>
						<g>
							
								<rect x="709.21" y="1027.34" transform="matrix(0.8302 -0.5575 0.5575 0.8302 -451.0686 586.0593)" width="54.49" height="12.2"/>
						</g>
						<g>
							
								<rect x="709.21" y="1062.29" transform="matrix(0.8302 -0.5575 0.5575 0.8302 -470.553 591.9944)" width="54.49" height="12.2"/>
						</g>
					</g>
				</g>
				<g>
					<g>
						<g>
							<path d="M928.24,1014.34h-0.51l-23.15-57.1l-23.02,57.1h-0.51l-37.81-95.94h17.88l20.71,56.59l22.51-56.59h0.51l22.5,56.59
								l20.84-56.59h17.75L928.24,1014.34z"/>
							<path d="M1045.94,1012.93h-17.49l-7.46-17.1h-39.61l-7.46,17.1h-17.49l44.5-96.2h0.51L1045.94,1012.93z M986.91,982.58h28.55
								l-14.27-32.79L986.91,982.58z"/>
							<path d="M1078.11,998.65h42.83v14.27h-58.9V918.4h16.08V998.65z"/>
							<path d="M1217.66,965.6c0,29.84-18.78,47.33-51.18,47.33h-29.2V918.4h29.2C1198.62,918.4,1217.66,935.76,1217.66,965.6z
								 M1153.35,933.32v64.82h12.73c23.02,0,35.37-11.96,35.37-32.54c0-20.45-12.48-32.28-35.37-32.28H1153.35z"/>
							<path d="M1329.95,1012.93h-16.08V966.5l-29.84,47.45h-1.03l-29.97-47.45v46.43h-16.08v-96.2h0.51l46.04,70.35l45.91-70.35
								h0.52V1012.93z"/>
							<path d="M1435.68,1012.93h-17.49l-7.46-17.1h-39.61l-7.46,17.1h-17.49l44.5-96.2h0.51L1435.68,1012.93z M1376.65,982.58
								h28.55l-14.27-32.79L1376.65,982.58z"/>
							<path d="M1525.98,1014.6h-0.51l-57.62-60.32v58.64h-16.08v-96.2h0.51l57.62,60.19V918.4h16.08V1014.6z"/>
							<path d="M1625.41,1014.6h-0.51l-57.62-60.32v58.64h-16.08v-96.2h0.51l57.62,60.19V918.4h16.08V1014.6z"/>
						</g>
						<g>
							<path d="M1167.75,1041.47h-22.27v12.68h19.44v7.16h-19.44v13.33h22.79v7.55h-31v-48.28h30.48V1041.47z"/>
							<path d="M1220.11,1083.05h-0.26l-29.43-30.81v29.95h-8.21v-49.13h0.26l29.43,30.74v-29.89h8.21V1083.05z"/>
							<path d="M1273.79,1041.21h-16.36v40.99h-8.21v-40.99h-16.35v-7.29h40.92V1041.21z"/>
							<path d="M1317.02,1041.47h-22.27v12.68h19.44v7.16h-19.44v13.33h22.79v7.55h-31v-48.28h30.48V1041.47z"/>
							<path d="M1365.84,1049.22c0,6.9-3.81,11.63-9.33,13.86l11.62,19.11h-9.59l-10.77-17.73h-8.21v17.73h-8.14v-48.28h17.34
								C1358.22,1033.92,1365.84,1039.37,1365.84,1049.22z M1339.56,1041.08v16.22h8.47c5.72,0,9.46-2.76,9.46-8.08
								c0-5.25-3.81-8.15-9.46-8.15H1339.56z"/>
							<path d="M1415.37,1049.55c0,9.99-7.49,15.57-16.88,15.57h-9.72v17.08h-8.21v-48.28h17.93
								C1407.82,1033.92,1415.37,1039.43,1415.37,1049.55z M1388.77,1041.08v16.88h8.93c5.65,0,9.33-2.89,9.33-8.41
								s-3.75-8.47-9.33-8.47H1388.77z"/>
							<path d="M1463.07,1049.22c0,6.9-3.81,11.63-9.33,13.86l11.62,19.11h-9.59l-10.77-17.73h-8.21v17.73h-8.14v-48.28h17.34
								C1455.45,1033.92,1463.07,1039.37,1463.07,1049.22z M1436.79,1041.08v16.22h8.47c5.72,0,9.46-2.76,9.46-8.08
								c0-5.25-3.81-8.15-9.46-8.15H1436.79z"/>
							<path d="M1486,1082.2h-8.21v-48.28h8.21V1082.2z"/>
							<path d="M1533.04,1038.19l-4.34,6.76c-3.02-2.5-6.9-4.33-12.02-4.33c-4.79,0-8.02,2.04-8.02,6.44c0,3.61,2.3,5.12,10.05,6.7
								c12.09,2.56,16.22,6.83,16.22,14.26c0,9-6.76,15.04-17.67,15.04c-7.29,0-13.53-2.23-18.13-6.31l4.47-6.83
								c3.35,3.42,8.8,5.58,13.92,5.58c5.58,0,9.2-2.36,9.2-6.77c0-3.55-2.7-5.45-10.38-7.03c-12.08-2.63-15.96-7.09-15.96-14.26
								c0-8.54,6.5-14.39,16.36-14.39C1523.45,1033.06,1529.1,1035.1,1533.04,1038.19z"/>
							<path d="M1578.83,1041.47h-22.27v12.68H1576v7.16h-19.44v13.33h22.79v7.55h-31v-48.28h30.48V1041.47z"/>
							<path d="M1623.51,1038.19l-4.34,6.76c-3.02-2.5-6.9-4.33-12.02-4.33c-4.79,0-8.02,2.04-8.02,6.44c0,3.61,2.3,5.12,10.05,6.7
								c12.09,2.56,16.22,6.83,16.22,14.26c0,9-6.76,15.04-17.67,15.04c-7.29,0-13.53-2.23-18.13-6.31l4.47-6.83
								c3.35,3.42,8.8,5.58,13.92,5.58c5.58,0,9.2-2.36,9.2-6.77c0-3.55-2.7-5.45-10.38-7.03c-12.08-2.63-15.96-7.09-15.96-14.26
								c0-8.54,6.5-14.39,16.36-14.39C1613.92,1033.06,1619.56,1035.1,1623.51,1038.19z"/>
						</g>
					</g>
					<rect x="843.23" y="1054.68" width="277.7" height="6.74"/>
				</g>
			</g>
			<g>
				<path d="M511.27,955.03c0-6.83,1.54-12.85,4.65-18.02c3.1-5.19,7.34-9.24,12.71-12.15c5.37-2.9,11.49-4.36,18.32-4.36h101.9
					v13.65h-104c-4.05,0-7.68,0.96-10.9,2.86c-3.21,1.9-5.75,4.42-7.6,7.58c-1.82,3.17-2.75,6.64-2.75,10.44s0.93,7.24,2.75,10.35
					c1.85,3.09,4.39,5.59,7.6,7.49c3.23,1.9,6.86,2.84,10.9,2.84h68.51c6.97,0,13.13,1.5,18.52,4.46
					c5.37,2.98,9.54,7.06,12.53,12.25c2.97,5.19,4.45,11,4.45,17.45c0,6.58-1.48,12.4-4.45,17.47c-2.98,5.05-7.15,9.03-12.53,11.95
					c-5.39,2.9-11.55,4.37-18.52,4.37h-68.51c-4.05,0-7.68,0.91-10.9,2.75c-3.21,1.82-5.75,4.36-7.6,7.58
					c-1.82,3.23-2.75,6.73-2.75,10.53c0,3.92,0.93,7.43,2.75,10.53c1.85,3.1,4.39,5.58,7.6,7.4c3.23,1.84,6.86,2.76,10.9,2.76
					h165.59v13.65H546.95c-6.83,0-12.94-1.45-18.32-4.36c-5.37-2.92-9.61-6.93-12.71-12.06c-3.1-5.11-4.65-11.09-4.65-17.93
					c0-6.7,1.54-12.68,4.65-17.93c3.1-5.25,7.34-9.33,12.71-12.25c5.37-2.9,11.49-4.36,18.32-4.36h68.51c4.05,0,7.69-0.93,10.9-2.75
					c3.24-1.84,5.76-4.28,7.6-7.31c1.82-3.04,2.75-6.39,2.75-10.07c0-3.66-0.93-7.01-2.75-10.05c-1.84-3.04-4.36-5.5-7.6-7.4
					c-3.21-1.9-6.86-2.86-10.9-2.86h-68.51c-6.83,0-12.94-1.48-18.32-4.45c-5.37-2.98-9.61-7.06-12.71-12.25
					C512.82,967.68,511.27,961.73,511.27,955.03z"/>
			</g>
		</g>
		<g>
			<polygon points="374.59,850.19 389.01,850.19 454.13,995.26 513.51,879.92 572.88,995.25 638.03,850.19 652.42,850.19 
				574.64,1027.26 513.51,912.13 452.37,1027.27 			"/>
		</g>
	</g>
	<g>
		<path d="M393.69,1145.48v3.97h-19.1v-25.47h18.6v3.97h-13.87v6.62h12.3v3.89h-12.3v7.02H393.69z"/>
		<path d="M425.23,1123.98v25.47h-3.89l-14.04-17.24v17.24h-4.69v-25.47h3.89l14.04,17.24v-17.24H425.23z"/>
		<path d="M453.1,1136.43h4.48v10.15c-1.31,1.04-2.83,1.84-4.58,2.4c-1.75,0.56-3.55,0.84-5.39,0.84c-2.6,0-4.93-0.56-7.02-1.69
			c-2.09-1.13-3.72-2.68-4.91-4.67c-1.19-1.99-1.78-4.24-1.78-6.73c0-2.49,0.59-4.74,1.78-6.73c1.19-1.99,2.83-3.55,4.93-4.67
			c2.1-1.13,4.46-1.7,7.08-1.7c2.13,0,4.07,0.35,5.81,1.06c1.75,0.7,3.21,1.73,4.4,3.09l-2.98,2.91c-1.94-1.94-4.28-2.91-7.02-2.91
			c-1.79,0-3.39,0.38-4.78,1.13c-1.39,0.75-2.48,1.81-3.27,3.17c-0.79,1.36-1.19,2.91-1.19,4.65c0,1.7,0.4,3.23,1.19,4.58
			c0.79,1.36,1.88,2.43,3.27,3.2s2.98,1.16,4.75,1.16c1.99,0,3.73-0.44,5.24-1.31V1136.43z"/>
		<path d="M467.43,1123.98h4.73v25.47h-4.73V1123.98z"/>
		<path d="M505.3,1123.98v25.47h-3.89l-14.04-17.24v17.24h-4.69v-25.47h3.89l14.04,17.24v-17.24H505.3z"/>
		<path d="M534.88,1145.48v3.97h-19.1v-25.47h18.6v3.97h-13.87v6.62h12.3v3.89h-12.3v7.02H534.88z"/>
		<path d="M562.89,1145.48v3.97h-19.1v-25.47h18.6v3.97h-13.87v6.62h12.3v3.89h-12.3v7.02H562.89z"/>
		<path d="M588.48,1149.45l-5.2-7.46c-0.22,0.02-0.55,0.04-0.98,0.04h-5.75v7.42h-4.73v-25.47h10.48c2.21,0,4.13,0.36,5.77,1.09
			c1.63,0.72,2.89,1.77,3.76,3.13c0.87,1.36,1.31,2.97,1.31,4.84c0,1.92-0.46,3.57-1.39,4.95c-0.94,1.38-2.28,2.41-4.02,3.09
			l5.85,8.37H588.48z M586.77,1129.29c-1.07-0.87-2.63-1.31-4.69-1.31h-5.54v10.15h5.54c2.06,0,3.62-0.44,4.69-1.33
			c1.07-0.89,1.6-2.14,1.6-3.77S587.83,1130.16,586.77,1129.29z"/>
		<path d="M602.05,1123.98h4.73v25.47h-4.73V1123.98z"/>
		<path d="M639.92,1123.98v25.47h-3.89l-14.04-17.24v17.24h-4.69v-25.47h3.89l14.04,17.24v-17.24H639.92z"/>
		<path d="M667.78,1136.43h4.48v10.15c-1.31,1.04-2.83,1.84-4.58,2.4s-3.55,0.84-5.39,0.84c-2.6,0-4.93-0.56-7.02-1.69
			c-2.09-1.13-3.72-2.68-4.91-4.67c-1.19-1.99-1.78-4.24-1.78-6.73c0-2.49,0.59-4.74,1.78-6.73c1.19-1.99,2.83-3.55,4.93-4.67
			c2.1-1.13,4.46-1.7,7.08-1.7c2.13,0,4.07,0.35,5.81,1.06c1.75,0.7,3.21,1.73,4.4,3.09l-2.98,2.91c-1.94-1.94-4.28-2.91-7.02-2.91
			c-1.79,0-3.39,0.38-4.78,1.13c-1.39,0.75-2.48,1.81-3.27,3.17c-0.79,1.36-1.19,2.91-1.19,4.65c0,1.7,0.4,3.23,1.19,4.58
			c0.79,1.36,1.88,2.43,3.27,3.2c1.39,0.78,2.98,1.16,4.75,1.16c1.99,0,3.73-0.44,5.24-1.31V1136.43z"/>
		<path d="M698,1148.98c-1.83-0.56-3.28-1.3-4.35-2.22l1.63-3.67c1.05,0.83,2.32,1.5,3.85,2.02c1.51,0.52,3.04,0.78,4.56,0.78
			c1.89,0,3.31-0.3,4.24-0.91c0.94-0.61,1.4-1.41,1.4-2.4c0-0.73-0.26-1.33-0.78-1.8c-0.52-0.47-1.18-0.85-1.99-1.11
			c-0.8-0.27-1.89-0.57-3.27-0.91c-1.94-0.46-3.51-0.92-4.71-1.38c-1.2-0.46-2.23-1.18-3.09-2.16c-0.86-0.98-1.29-2.31-1.29-3.98
			c0-1.41,0.38-2.69,1.14-3.84c0.76-1.15,1.91-2.07,3.46-2.74c1.54-0.68,3.43-1.02,5.66-1.02c1.55,0,3.08,0.2,4.59,0.59
			c1.5,0.39,2.8,0.94,3.89,1.67l-1.5,3.67c-1.11-0.65-2.28-1.15-3.49-1.49c-1.21-0.34-2.39-0.51-3.53-0.51
			c-1.87,0-3.25,0.32-4.16,0.95c-0.91,0.63-1.37,1.47-1.37,2.51c0,0.72,0.26,1.32,0.78,1.78c0.52,0.46,1.19,0.83,1.99,1.09
			c0.8,0.27,1.89,0.57,3.27,0.91c1.89,0.44,3.45,0.89,4.66,1.37c1.21,0.47,2.25,1.19,3.1,2.16c0.86,0.97,1.29,2.28,1.29,3.93
			c0,1.41-0.38,2.68-1.14,3.82c-0.76,1.14-1.92,2.05-3.47,2.73s-3.45,1.02-5.68,1.02C701.74,1149.81,699.83,1149.53,698,1148.98z"/>
		<path d="M741.42,1145.48v3.97h-19.1v-25.47h18.6v3.97h-13.87v6.62h12.3v3.89h-12.3v7.02H741.42z"/>
		<path d="M767,1149.45l-5.2-7.46c-0.22,0.02-0.55,0.04-0.98,0.04h-5.75v7.42h-4.73v-25.47h10.48c2.21,0,4.13,0.36,5.77,1.09
			c1.63,0.72,2.89,1.77,3.76,3.13c0.87,1.36,1.31,2.97,1.31,4.84c0,1.92-0.46,3.57-1.39,4.95c-0.94,1.38-2.28,2.41-4.02,3.09
			l5.85,8.37H767z M765.29,1129.29c-1.07-0.87-2.63-1.31-4.69-1.31h-5.54v10.15h5.54c2.06,0,3.62-0.44,4.69-1.33
			c1.07-0.89,1.6-2.14,1.6-3.77S766.36,1130.16,765.29,1129.29z"/>
		<path d="M803.85,1123.98l-11.1,25.47h-4.65l-11.14-25.47h5.14l8.47,19.65l8.56-19.65H803.85z"/>
		<path d="M810.18,1123.98h4.73v25.47h-4.73V1123.98z"/>
		<path d="M830.25,1148.12c-2.07-1.13-3.7-2.68-4.88-4.67c-1.17-1.99-1.76-4.24-1.76-6.73c0-2.49,0.59-4.74,1.78-6.73
			c1.19-1.99,2.82-3.55,4.9-4.67c2.07-1.13,4.39-1.7,6.97-1.7c2.09,0,3.99,0.37,5.71,1.09c1.72,0.73,3.18,1.78,4.37,3.17l-3.06,2.87
			c-1.84-1.99-4.11-2.99-6.8-2.99c-1.75,0-3.32,0.39-4.7,1.15c-1.38,0.77-2.46,1.83-3.23,3.19c-0.78,1.36-1.17,2.9-1.17,4.62
			c0,1.72,0.39,3.27,1.17,4.62c0.77,1.36,1.85,2.42,3.23,3.19c1.38,0.76,2.95,1.14,4.7,1.14c2.68,0,4.96-1,6.8-3.02l3.06,2.91
			c-1.19,1.38-2.65,2.44-4.38,3.16c-1.74,0.73-3.64,1.09-5.73,1.09C834.64,1149.81,832.32,1149.25,830.25,1148.12z"/>
		<path d="M874.61,1145.48v3.97h-19.1v-25.47h18.6v3.97h-13.87v6.62h12.3v3.89h-12.3v7.02H874.61z"/>
		<path d="M885.72,1148.98c-1.83-0.56-3.28-1.3-4.35-2.22l1.63-3.67c1.05,0.83,2.32,1.5,3.85,2.02c1.51,0.52,3.04,0.78,4.56,0.78
			c1.89,0,3.31-0.3,4.24-0.91c0.94-0.61,1.4-1.41,1.4-2.4c0-0.73-0.26-1.33-0.78-1.8c-0.52-0.47-1.18-0.85-1.99-1.11
			c-0.8-0.27-1.89-0.57-3.27-0.91c-1.94-0.46-3.51-0.92-4.71-1.38c-1.2-0.46-2.23-1.18-3.09-2.16c-0.86-0.98-1.29-2.31-1.29-3.98
			c0-1.41,0.38-2.69,1.14-3.84s1.91-2.07,3.46-2.74c1.54-0.68,3.43-1.02,5.66-1.02c1.55,0,3.08,0.2,4.59,0.59
			c1.5,0.39,2.8,0.94,3.89,1.67l-1.5,3.67c-1.11-0.65-2.28-1.15-3.49-1.49c-1.21-0.34-2.39-0.51-3.53-0.51
			c-1.87,0-3.25,0.32-4.16,0.95c-0.91,0.63-1.37,1.47-1.37,2.51c0,0.72,0.26,1.32,0.78,1.78c0.52,0.46,1.19,0.83,1.99,1.09
			c0.8,0.27,1.89,0.57,3.27,0.91c1.89,0.44,3.45,0.89,4.66,1.37c1.21,0.47,2.25,1.19,3.1,2.16c0.86,0.97,1.29,2.28,1.29,3.93
			c0,1.41-0.38,2.68-1.14,3.82c-0.76,1.14-1.92,2.05-3.47,2.73c-1.55,0.68-3.45,1.02-5.68,1.02
			C889.46,1149.81,887.55,1149.53,885.72,1148.98z"/>
		<path d="M940.24,1143.56H927.5l-2.51,5.89h-4.88l11.46-25.47h4.65l11.5,25.47h-4.95L940.24,1143.56z M938.68,1139.84l-4.8-11.13
			l-4.77,11.13H938.68z"/>
		<path d="M977.24,1123.98v25.47h-3.89l-14.04-17.24v17.24h-4.69v-25.47h3.89l14.04,17.24v-17.24H977.24z"/>
		<path d="M987.72,1123.98h11.14c2.71,0,5.13,0.52,7.24,1.58c2.11,1.06,3.74,2.55,4.91,4.48c1.16,1.93,1.75,4.15,1.75,6.67
			c0,2.53-0.59,4.75-1.75,6.68c-1.17,1.93-2.81,3.42-4.91,4.47s-4.52,1.58-7.24,1.58h-11.14V1123.98z M998.64,1145.45
			c1.87,0,3.51-0.36,4.93-1.07s2.51-1.73,3.27-3.06c0.77-1.32,1.15-2.86,1.15-4.6c0-1.75-0.38-3.28-1.15-4.6
			c-0.76-1.32-1.85-2.34-3.27-3.06c-1.42-0.72-3.07-1.07-4.93-1.07h-6.19v17.46H998.64z"/>
		<path d="M1058.49,1149.45l-0.04-16.88l-8.37,13.97h-2.11l-8.37-13.75v16.66h-4.51v-25.47h3.89l10.12,16.88l9.93-16.88h3.89
			l0.04,25.47H1058.49z"/>
		<path d="M1078.35,1148.12c-2.09-1.13-3.72-2.69-4.91-4.69c-1.19-2-1.78-4.24-1.78-6.72c0-2.47,0.59-4.71,1.78-6.71
			c1.19-2,2.82-3.57,4.91-4.69c2.09-1.13,4.42-1.7,7.02-1.7c2.59,0,4.93,0.57,7.02,1.7c2.08,1.12,3.72,2.68,4.91,4.67
			c1.18,1.99,1.77,4.24,1.77,6.73c0,2.5-0.59,4.74-1.77,6.73c-1.19,1.99-2.83,3.54-4.91,4.67c-2.09,1.13-4.43,1.69-7.02,1.69
			C1082.77,1149.81,1080.44,1149.25,1078.35,1148.12z M1089.95,1144.52c1.37-0.77,2.42-1.83,3.2-3.2s1.16-2.9,1.16-4.6
			c0-1.7-0.38-3.23-1.16-4.6c-0.78-1.37-1.84-2.43-3.2-3.2c-1.36-0.76-2.88-1.15-4.58-1.15c-1.7,0-3.22,0.39-4.59,1.15
			c-1.36,0.77-2.42,1.83-3.2,3.2c-0.78,1.37-1.17,2.91-1.17,4.6c0,1.7,0.39,3.23,1.17,4.6c0.77,1.37,1.84,2.44,3.2,3.2
			c1.37,0.76,2.89,1.14,4.59,1.14C1087.07,1145.66,1088.59,1145.28,1089.95,1144.52z"/>
		<path d="M1107.74,1123.98h11.14c2.71,0,5.13,0.52,7.24,1.58c2.11,1.06,3.74,2.55,4.91,4.48c1.16,1.93,1.75,4.15,1.75,6.67
			c0,2.53-0.59,4.75-1.75,6.68c-1.17,1.93-2.81,3.42-4.91,4.47s-4.52,1.58-7.24,1.58h-11.14V1123.98z M1118.65,1145.45
			c1.87,0,3.51-0.36,4.93-1.07c1.42-0.72,2.51-1.73,3.27-3.06c0.77-1.32,1.15-2.86,1.15-4.6c0-1.75-0.38-3.28-1.15-4.6
			c-0.76-1.32-1.85-2.34-3.27-3.06c-1.42-0.72-3.07-1.07-4.93-1.07h-6.19v17.46H1118.65z"/>
		<path d="M1160.53,1145.48v3.97h-19.1v-25.47h18.6v3.97h-13.87v6.62h12.3v3.89h-12.3v7.02H1160.53z"/>
		<path d="M1186.11,1149.45l-5.2-7.46c-0.22,0.02-0.55,0.04-0.98,0.04h-5.75v7.42h-4.73v-25.47h10.48c2.21,0,4.13,0.36,5.77,1.09
			c1.63,0.72,2.89,1.77,3.76,3.13c0.87,1.36,1.31,2.97,1.31,4.84c0,1.92-0.46,3.57-1.39,4.95c-0.94,1.38-2.28,2.41-4.02,3.09
			l5.85,8.37H1186.11z M1184.4,1129.29c-1.07-0.87-2.63-1.31-4.69-1.31h-5.54v10.15h5.54c2.06,0,3.62-0.44,4.69-1.33
			c1.07-0.89,1.6-2.14,1.6-3.77S1185.47,1130.16,1184.4,1129.29z"/>
		<path d="M1222.31,1123.98v25.47h-3.89l-14.04-17.24v17.24h-4.69v-25.47h3.89l14.04,17.24v-17.24H1222.31z"/>
		<path d="M1269.86,1149.45l-0.04-16.88l-8.37,13.97h-2.11l-8.37-13.75v16.66h-4.51v-25.47h3.89l10.12,16.88l9.93-16.88h3.89
			l0.04,25.47H1269.86z"/>
		<path d="M1301.36,1143.56h-12.74l-2.51,5.89h-4.88l11.46-25.47h4.65l11.5,25.47h-4.95L1301.36,1143.56z M1299.8,1139.84
			l-4.8-11.13l-4.77,11.13H1299.8z"/>
		<path d="M1338.36,1123.98v25.47h-3.89l-14.04-17.24v17.24h-4.69v-25.47h3.89l14.04,17.24v-17.24H1338.36z"/>
		<path d="M1351.57,1146.85c-1.97-1.98-2.94-4.81-2.94-8.49v-14.37h4.73v14.19c0,5,2.16,7.49,6.47,7.49c4.29,0,6.44-2.49,6.44-7.49
			v-14.19h4.66v14.37c0,3.69-0.98,6.52-2.94,8.49c-1.95,1.98-4.68,2.96-8.2,2.96S1353.53,1148.83,1351.57,1146.85z"/>
		<path d="M1385.91,1127.95v7.75h12.3v4h-12.3v9.75h-4.73v-25.47h18.6v3.97H1385.91z"/>
		<path d="M1423.42,1143.56h-12.74l-2.51,5.89h-4.88l11.46-25.47h4.65l11.5,25.47h-4.95L1423.42,1143.56z M1421.86,1139.84
			l-4.8-11.13l-4.77,11.13H1421.86z"/>
		<path d="M1442.25,1148.12c-2.07-1.13-3.7-2.68-4.88-4.67c-1.17-1.99-1.76-4.24-1.76-6.73c0-2.49,0.59-4.74,1.78-6.73
			c1.19-1.99,2.82-3.55,4.9-4.67c2.07-1.13,4.39-1.7,6.97-1.7c2.09,0,3.99,0.37,5.71,1.09c1.72,0.73,3.18,1.78,4.37,3.17l-3.06,2.87
			c-1.84-1.99-4.11-2.99-6.8-2.99c-1.75,0-3.32,0.39-4.7,1.15c-1.38,0.77-2.46,1.83-3.23,3.19c-0.78,1.36-1.17,2.9-1.17,4.62
			c0,1.72,0.39,3.27,1.17,4.62c0.77,1.36,1.85,2.42,3.23,3.19c1.38,0.76,2.95,1.14,4.7,1.14c2.68,0,4.96-1,6.8-3.02l3.06,2.91
			c-1.19,1.38-2.65,2.44-4.38,3.16c-1.74,0.73-3.64,1.09-5.73,1.09C1446.65,1149.81,1444.32,1149.25,1442.25,1148.12z"/>
		<path d="M1472.39,1127.98h-8.43v-4h21.61v4h-8.44v21.47h-4.73V1127.98z"/>
		<path d="M1495.02,1146.85c-1.97-1.98-2.94-4.81-2.94-8.49v-14.37h4.73v14.19c0,5,2.16,7.49,6.47,7.49c4.29,0,6.44-2.49,6.44-7.49
			v-14.19h4.66v14.37c0,3.69-0.98,6.52-2.94,8.49c-1.95,1.98-4.68,2.96-8.2,2.96S1496.98,1148.83,1495.02,1146.85z"/>
		<path d="M1541.3,1149.45l-5.2-7.46c-0.22,0.02-0.55,0.04-0.98,0.04h-5.75v7.42h-4.73v-25.47h10.48c2.21,0,4.13,0.36,5.77,1.09
			c1.63,0.72,2.89,1.77,3.76,3.13c0.87,1.36,1.31,2.97,1.31,4.84c0,1.92-0.46,3.57-1.39,4.95c-0.94,1.38-2.28,2.41-4.02,3.09
			l5.85,8.37H1541.3z M1539.59,1129.29c-1.07-0.87-2.63-1.31-4.69-1.31h-5.54v10.15h5.54c2.06,0,3.62-0.44,4.69-1.33
			c1.07-0.89,1.6-2.14,1.6-3.77S1540.66,1130.16,1539.59,1129.29z"/>
		<path d="M1554.87,1123.98h4.73v25.47h-4.73V1123.98z"/>
		<path d="M1592.74,1123.98v25.47h-3.89l-14.04-17.24v17.24h-4.69v-25.47h3.89l14.04,17.24v-17.24H1592.74z"/>
		<path d="M1620.61,1136.43h4.48v10.15c-1.31,1.04-2.83,1.84-4.58,2.4s-3.55,0.84-5.39,0.84c-2.6,0-4.93-0.56-7.02-1.69
			c-2.09-1.13-3.72-2.68-4.91-4.67c-1.19-1.99-1.78-4.24-1.78-6.73c0-2.49,0.59-4.74,1.78-6.73c1.19-1.99,2.83-3.55,4.93-4.67
			c2.1-1.13,4.46-1.7,7.08-1.7c2.13,0,4.07,0.35,5.81,1.06c1.75,0.7,3.21,1.73,4.4,3.09l-2.98,2.91c-1.94-1.94-4.28-2.91-7.02-2.91
			c-1.79,0-3.39,0.38-4.78,1.13c-1.39,0.75-2.48,1.81-3.27,3.17c-0.79,1.36-1.19,2.91-1.19,4.65c0,1.7,0.4,3.23,1.19,4.58
			c0.79,1.36,1.88,2.43,3.27,3.2c1.39,0.78,2.98,1.16,4.75,1.16c1.99,0,3.73-0.44,5.24-1.31V1136.43z"/>
	</g>
</g>
</svg>
